<mxfile host="app.diagrams.net" modified="2020-10-13T15:12:00.202Z" agent="5.0 (Windows NT 10.0; Win64; x64) AppleWebKit/537.36 (KHTML, like Gecko) Chrome/85.0.4183.121 Safari/537.36" etag="LuaK3v2zpo2S9vEWFc9f" version="13.7.8" type="github">
  <diagram id="N9LqqmapOyAZEx2N89n5" name="Page-1">
    <mxGraphModel dx="2031" dy="1134" grid="1" gridSize="10" guides="1" tooltips="1" connect="1" arrows="1" fold="1" page="1" pageScale="1" pageWidth="827" pageHeight="1169" math="0" shadow="0">
      <root>
        <mxCell id="0" />
        <mxCell id="1" parent="0" />
        <mxCell id="LbgdtF4BxHfbJpCjpxdi-1" value="&lt;font style=&quot;font-size: 14px&quot;&gt;client 1&lt;/font&gt;" style="shape=umlActor;verticalLabelPosition=bottom;verticalAlign=top;html=1;outlineConnect=0;" vertex="1" parent="1">
          <mxGeometry x="70" y="80" width="30" height="60" as="geometry" />
        </mxCell>
        <mxCell id="LbgdtF4BxHfbJpCjpxdi-2" value="" style="endArrow=none;dashed=1;html=1;" edge="1" parent="1" source="LbgdtF4BxHfbJpCjpxdi-11">
          <mxGeometry width="50" height="50" relative="1" as="geometry">
            <mxPoint x="85" y="860" as="sourcePoint" />
            <mxPoint x="84.5" y="160" as="targetPoint" />
          </mxGeometry>
        </mxCell>
        <mxCell id="LbgdtF4BxHfbJpCjpxdi-3" value="" style="shape=cylinder3;whiteSpace=wrap;html=1;boundedLbl=1;backgroundOutline=1;size=15;" vertex="1" parent="1">
          <mxGeometry x="390" y="60" width="60" height="80" as="geometry" />
        </mxCell>
        <mxCell id="LbgdtF4BxHfbJpCjpxdi-4" value="&lt;font style=&quot;font-size: 14px&quot;&gt;server&lt;/font&gt;" style="text;html=1;align=center;verticalAlign=middle;resizable=0;points=[];autosize=1;" vertex="1" parent="1">
          <mxGeometry x="395" y="140" width="50" height="20" as="geometry" />
        </mxCell>
        <mxCell id="LbgdtF4BxHfbJpCjpxdi-5" value="&lt;font style=&quot;font-size: 14px&quot;&gt;client 2&lt;/font&gt;" style="shape=umlActor;verticalLabelPosition=bottom;verticalAlign=top;html=1;outlineConnect=0;" vertex="1" parent="1">
          <mxGeometry x="740" y="80" width="30" height="60" as="geometry" />
        </mxCell>
        <mxCell id="LbgdtF4BxHfbJpCjpxdi-6" value="" style="endArrow=none;dashed=1;html=1;entryX=0.52;entryY=1.2;entryDx=0;entryDy=0;entryPerimeter=0;" edge="1" parent="1" target="LbgdtF4BxHfbJpCjpxdi-4">
          <mxGeometry width="50" height="50" relative="1" as="geometry">
            <mxPoint x="421" y="1160" as="sourcePoint" />
            <mxPoint x="419.5" y="260" as="targetPoint" />
          </mxGeometry>
        </mxCell>
        <mxCell id="LbgdtF4BxHfbJpCjpxdi-8" value="" style="endArrow=none;dashed=1;html=1;" edge="1" parent="1" source="LbgdtF4BxHfbJpCjpxdi-35">
          <mxGeometry width="50" height="50" relative="1" as="geometry">
            <mxPoint x="755" y="1060" as="sourcePoint" />
            <mxPoint x="754.5" y="160" as="targetPoint" />
          </mxGeometry>
        </mxCell>
        <mxCell id="LbgdtF4BxHfbJpCjpxdi-9" value="&lt;font style=&quot;font-size: 12px&quot;&gt;&lt;b&gt;GameViewEventListener&lt;/b&gt;&lt;/font&gt;" style="rounded=0;whiteSpace=wrap;html=1;" vertex="1" parent="1">
          <mxGeometry x="12.5" y="240" width="145" height="60" as="geometry" />
        </mxCell>
        <mxCell id="LbgdtF4BxHfbJpCjpxdi-10" value="&lt;font style=&quot;font-size: 14px&quot;&gt;CMD_PROPOSE_DRAW&lt;/font&gt;" style="text;html=1;align=center;verticalAlign=middle;resizable=0;points=[];autosize=1;" vertex="1" parent="1">
          <mxGeometry x="90" y="190" width="170" height="20" as="geometry" />
        </mxCell>
        <mxCell id="LbgdtF4BxHfbJpCjpxdi-11" value="&lt;font style=&quot;font-size: 14px&quot;&gt;Game&lt;/font&gt;" style="rounded=0;whiteSpace=wrap;html=1;" vertex="1" parent="1">
          <mxGeometry x="25" y="350" width="120" height="60" as="geometry" />
        </mxCell>
        <mxCell id="LbgdtF4BxHfbJpCjpxdi-12" value="" style="endArrow=none;dashed=1;html=1;" edge="1" parent="1" source="LbgdtF4BxHfbJpCjpxdi-49" target="LbgdtF4BxHfbJpCjpxdi-11">
          <mxGeometry width="50" height="50" relative="1" as="geometry">
            <mxPoint x="85" y="1160" as="sourcePoint" />
            <mxPoint x="84.5" y="160" as="targetPoint" />
          </mxGeometry>
        </mxCell>
        <mxCell id="LbgdtF4BxHfbJpCjpxdi-13" value="" style="endArrow=classic;html=1;exitX=1;exitY=0.75;exitDx=0;exitDy=0;entryX=0.75;entryY=1;entryDx=0;entryDy=0;" edge="1" parent="1" source="LbgdtF4BxHfbJpCjpxdi-11" target="LbgdtF4BxHfbJpCjpxdi-11">
          <mxGeometry width="50" height="50" relative="1" as="geometry">
            <mxPoint x="390" y="530" as="sourcePoint" />
            <mxPoint x="130" y="450" as="targetPoint" />
            <Array as="points">
              <mxPoint x="160" y="395" />
              <mxPoint x="160" y="430" />
              <mxPoint x="115" y="430" />
            </Array>
          </mxGeometry>
        </mxCell>
        <mxCell id="LbgdtF4BxHfbJpCjpxdi-14" value="&lt;font style=&quot;font-size: 14px&quot;&gt;drawRequest()&lt;/font&gt;" style="text;html=1;align=center;verticalAlign=middle;resizable=0;points=[];autosize=1;" vertex="1" parent="1">
          <mxGeometry x="160" y="400" width="110" height="20" as="geometry" />
        </mxCell>
        <mxCell id="LbgdtF4BxHfbJpCjpxdi-15" value="&lt;font style=&quot;font-size: 14px&quot;&gt;GameApplication&lt;/font&gt;" style="rounded=0;whiteSpace=wrap;html=1;" vertex="1" parent="1">
          <mxGeometry x="25" y="480" width="120" height="60" as="geometry" />
        </mxCell>
        <mxCell id="LbgdtF4BxHfbJpCjpxdi-16" value="call" style="text;html=1;align=center;verticalAlign=middle;resizable=0;points=[];autosize=1;" vertex="1" parent="1">
          <mxGeometry x="90" y="320" width="30" height="20" as="geometry" />
        </mxCell>
        <mxCell id="LbgdtF4BxHfbJpCjpxdi-17" value="call" style="text;html=1;align=center;verticalAlign=middle;resizable=0;points=[];autosize=1;" vertex="1" parent="1">
          <mxGeometry x="90" y="450" width="30" height="20" as="geometry" />
        </mxCell>
        <mxCell id="LbgdtF4BxHfbJpCjpxdi-20" value="&lt;b&gt;ProposeDrawC2SHandler&lt;/b&gt;" style="rounded=0;whiteSpace=wrap;html=1;" vertex="1" parent="1">
          <mxGeometry x="345" y="480" width="150" height="60" as="geometry" />
        </mxCell>
        <mxCell id="LbgdtF4BxHfbJpCjpxdi-21" value="" style="endArrow=classic;html=1;exitX=1;exitY=0.5;exitDx=0;exitDy=0;entryX=0;entryY=0.5;entryDx=0;entryDy=0;" edge="1" parent="1" source="LbgdtF4BxHfbJpCjpxdi-15" target="LbgdtF4BxHfbJpCjpxdi-20">
          <mxGeometry width="50" height="50" relative="1" as="geometry">
            <mxPoint x="390" y="530" as="sourcePoint" />
            <mxPoint x="440" y="480" as="targetPoint" />
          </mxGeometry>
        </mxCell>
        <mxCell id="LbgdtF4BxHfbJpCjpxdi-22" value="&lt;font style=&quot;font-size: 14px&quot;&gt;send message with &lt;br&gt;type=PROPOSE_DRAW&lt;/font&gt;" style="text;html=1;align=center;verticalAlign=middle;resizable=0;points=[];autosize=1;" vertex="1" parent="1">
          <mxGeometry x="160" y="465" width="170" height="40" as="geometry" />
        </mxCell>
        <mxCell id="LbgdtF4BxHfbJpCjpxdi-23" value="&lt;b&gt;&lt;font style=&quot;font-size: 11px&quot;&gt;ProposeDrawS2CHandler&lt;/font&gt;&lt;/b&gt;" style="rounded=0;whiteSpace=wrap;html=1;" vertex="1" parent="1">
          <mxGeometry x="684.38" y="480" width="141.25" height="60" as="geometry" />
        </mxCell>
        <mxCell id="LbgdtF4BxHfbJpCjpxdi-24" value="" style="endArrow=classic;html=1;exitX=1;exitY=0.5;exitDx=0;exitDy=0;entryX=0;entryY=0.5;entryDx=0;entryDy=0;" edge="1" parent="1" source="LbgdtF4BxHfbJpCjpxdi-20" target="LbgdtF4BxHfbJpCjpxdi-23">
          <mxGeometry width="50" height="50" relative="1" as="geometry">
            <mxPoint x="390" y="520" as="sourcePoint" />
            <mxPoint x="440" y="470" as="targetPoint" />
          </mxGeometry>
        </mxCell>
        <mxCell id="LbgdtF4BxHfbJpCjpxdi-25" value="&lt;font style=&quot;font-size: 14px&quot;&gt;send message with&lt;br&gt;type=PROPOSE_DRAW_S2C&lt;/font&gt;" style="text;html=1;align=center;verticalAlign=middle;resizable=0;points=[];autosize=1;" vertex="1" parent="1">
          <mxGeometry x="490" y="465" width="200" height="40" as="geometry" />
        </mxCell>
        <mxCell id="LbgdtF4BxHfbJpCjpxdi-26" value="&lt;font style=&quot;font-size: 14px&quot;&gt;notifyObservers()&lt;/font&gt;" style="text;html=1;align=center;verticalAlign=middle;resizable=0;points=[];autosize=1;" vertex="1" parent="1">
          <mxGeometry x="580" y="560" width="120" height="20" as="geometry" />
        </mxCell>
        <mxCell id="LbgdtF4BxHfbJpCjpxdi-27" value="&lt;font style=&quot;font-size: 14px&quot;&gt;ChessBoardView&lt;/font&gt;" style="rounded=0;whiteSpace=wrap;html=1;" vertex="1" parent="1">
          <mxGeometry x="695" y="610" width="120" height="60" as="geometry" />
        </mxCell>
        <mxCell id="LbgdtF4BxHfbJpCjpxdi-28" value="" style="endArrow=classic;html=1;entryX=0.133;entryY=1.022;entryDx=0;entryDy=0;exitX=0;exitY=0.75;exitDx=0;exitDy=0;entryPerimeter=0;" edge="1" parent="1" source="LbgdtF4BxHfbJpCjpxdi-27" target="LbgdtF4BxHfbJpCjpxdi-27">
          <mxGeometry width="50" height="50" relative="1" as="geometry">
            <mxPoint x="695" y="640" as="sourcePoint" />
            <mxPoint x="695" y="710" as="targetPoint" />
            <Array as="points">
              <mxPoint x="680" y="655" />
              <mxPoint x="680" y="690" />
              <mxPoint x="711" y="690" />
            </Array>
          </mxGeometry>
        </mxCell>
        <mxCell id="LbgdtF4BxHfbJpCjpxdi-29" value="&lt;font style=&quot;font-size: 14px&quot;&gt;update()&lt;/font&gt;" style="text;html=1;align=center;verticalAlign=middle;resizable=0;points=[];autosize=1;" vertex="1" parent="1">
          <mxGeometry x="615" y="660" width="70" height="20" as="geometry" />
        </mxCell>
        <mxCell id="LbgdtF4BxHfbJpCjpxdi-30" value="" style="endArrow=classic;html=1;exitX=0;exitY=0.75;exitDx=0;exitDy=0;entryX=0.139;entryY=0.989;entryDx=0;entryDy=0;entryPerimeter=0;" edge="1" parent="1" source="LbgdtF4BxHfbJpCjpxdi-23" target="LbgdtF4BxHfbJpCjpxdi-23">
          <mxGeometry width="50" height="50" relative="1" as="geometry">
            <mxPoint x="390" y="720" as="sourcePoint" />
            <mxPoint x="704" y="546" as="targetPoint" />
            <Array as="points">
              <mxPoint x="670" y="525" />
              <mxPoint x="670" y="560" />
              <mxPoint x="704" y="560" />
            </Array>
          </mxGeometry>
        </mxCell>
        <mxCell id="LbgdtF4BxHfbJpCjpxdi-31" value="call" style="text;html=1;align=center;verticalAlign=middle;resizable=0;points=[];autosize=1;" vertex="1" parent="1">
          <mxGeometry x="755" y="574" width="30" height="20" as="geometry" />
        </mxCell>
        <mxCell id="LbgdtF4BxHfbJpCjpxdi-32" value="" style="endArrow=none;dashed=1;html=1;dashPattern=1 3;strokeWidth=2;" edge="1" parent="1">
          <mxGeometry width="50" height="50" relative="1" as="geometry">
            <mxPoint x="580" y="710" as="sourcePoint" />
            <mxPoint x="750" y="730" as="targetPoint" />
          </mxGeometry>
        </mxCell>
        <mxCell id="LbgdtF4BxHfbJpCjpxdi-33" value="&lt;font style=&quot;font-size: 14px&quot;&gt;if client 2 accepts&lt;/font&gt;" style="text;html=1;align=center;verticalAlign=middle;resizable=0;points=[];autosize=1;" vertex="1" parent="1">
          <mxGeometry x="499.38" y="690" width="120" height="20" as="geometry" />
        </mxCell>
        <mxCell id="LbgdtF4BxHfbJpCjpxdi-34" value="&lt;font style=&quot;font-size: 14px&quot;&gt;CMD_ACCEPT_DRAW&lt;/font&gt;" style="text;html=1;align=center;verticalAlign=middle;resizable=0;points=[];autosize=1;" vertex="1" parent="1">
          <mxGeometry x="585" y="740" width="160" height="20" as="geometry" />
        </mxCell>
        <mxCell id="LbgdtF4BxHfbJpCjpxdi-35" value="&lt;font style=&quot;font-size: 12px&quot;&gt;&lt;b&gt;GameViewEventListener&lt;/b&gt;&lt;/font&gt;" style="rounded=0;whiteSpace=wrap;html=1;" vertex="1" parent="1">
          <mxGeometry x="680" y="780" width="140" height="60" as="geometry" />
        </mxCell>
        <mxCell id="LbgdtF4BxHfbJpCjpxdi-36" value="" style="endArrow=none;dashed=1;html=1;" edge="1" parent="1" target="LbgdtF4BxHfbJpCjpxdi-35">
          <mxGeometry width="50" height="50" relative="1" as="geometry">
            <mxPoint x="750" y="1160" as="sourcePoint" />
            <mxPoint x="754.5" y="160" as="targetPoint" />
          </mxGeometry>
        </mxCell>
        <mxCell id="LbgdtF4BxHfbJpCjpxdi-37" value="&lt;font style=&quot;font-size: 14px&quot;&gt;Game&lt;/font&gt;" style="rounded=0;whiteSpace=wrap;html=1;" vertex="1" parent="1">
          <mxGeometry x="684.38" y="900" width="120" height="60" as="geometry" />
        </mxCell>
        <mxCell id="LbgdtF4BxHfbJpCjpxdi-41" value="call" style="text;html=1;align=center;verticalAlign=middle;resizable=0;points=[];autosize=1;" vertex="1" parent="1">
          <mxGeometry x="755" y="860" width="30" height="20" as="geometry" />
        </mxCell>
        <mxCell id="LbgdtF4BxHfbJpCjpxdi-42" value="call" style="text;html=1;align=center;verticalAlign=middle;resizable=0;points=[];autosize=1;" vertex="1" parent="1">
          <mxGeometry x="755" y="980" width="30" height="20" as="geometry" />
        </mxCell>
        <mxCell id="LbgdtF4BxHfbJpCjpxdi-46" style="edgeStyle=orthogonalEdgeStyle;rounded=0;orthogonalLoop=1;jettySize=auto;html=1;exitX=0;exitY=0.5;exitDx=0;exitDy=0;entryX=1;entryY=0.5;entryDx=0;entryDy=0;" edge="1" parent="1" source="LbgdtF4BxHfbJpCjpxdi-43" target="LbgdtF4BxHfbJpCjpxdi-44">
          <mxGeometry relative="1" as="geometry" />
        </mxCell>
        <mxCell id="LbgdtF4BxHfbJpCjpxdi-43" value="&lt;font style=&quot;font-size: 14px&quot;&gt;GameApplication&lt;/font&gt;" style="rounded=0;whiteSpace=wrap;html=1;" vertex="1" parent="1">
          <mxGeometry x="690" y="1010" width="120" height="60" as="geometry" />
        </mxCell>
        <mxCell id="LbgdtF4BxHfbJpCjpxdi-44" value="&lt;font style=&quot;font-size: 14px&quot;&gt;EndGameEventHandler&lt;/font&gt;" style="rounded=0;whiteSpace=wrap;html=1;" vertex="1" parent="1">
          <mxGeometry x="345" y="1010" width="150" height="60" as="geometry" />
        </mxCell>
        <mxCell id="LbgdtF4BxHfbJpCjpxdi-47" value="&lt;font style=&quot;font-size: 11px&quot;&gt;&lt;b&gt;send message with&lt;br&gt;type=END_GAME&lt;br&gt;reason=&lt;br&gt;CONCLUSION_DRAW_AGREEMENT&lt;br&gt;result=RESULT_DRAW&lt;/b&gt;&lt;/font&gt;" style="text;html=1;align=center;verticalAlign=middle;resizable=0;points=[];autosize=1;" vertex="1" parent="1">
          <mxGeometry x="485" y="960" width="210" height="80" as="geometry" />
        </mxCell>
        <mxCell id="LbgdtF4BxHfbJpCjpxdi-48" value="&lt;font style=&quot;font-size: 14px&quot;&gt;EndGameHandler&lt;/font&gt;" style="rounded=0;whiteSpace=wrap;html=1;" vertex="1" parent="1">
          <mxGeometry x="690" y="1090" width="120" height="60" as="geometry" />
        </mxCell>
        <mxCell id="LbgdtF4BxHfbJpCjpxdi-49" value="&lt;font style=&quot;font-size: 14px&quot;&gt;EndGameHandler&lt;/font&gt;" style="rounded=0;whiteSpace=wrap;html=1;" vertex="1" parent="1">
          <mxGeometry x="25" y="1090" width="120" height="60" as="geometry" />
        </mxCell>
        <mxCell id="LbgdtF4BxHfbJpCjpxdi-50" value="" style="endArrow=none;dashed=1;html=1;" edge="1" parent="1" target="LbgdtF4BxHfbJpCjpxdi-49">
          <mxGeometry width="50" height="50" relative="1" as="geometry">
            <mxPoint x="85" y="1160" as="sourcePoint" />
            <mxPoint x="85" y="410" as="targetPoint" />
          </mxGeometry>
        </mxCell>
        <mxCell id="LbgdtF4BxHfbJpCjpxdi-51" value="&lt;font style=&quot;font-size: 14px&quot;&gt;End game...&lt;/font&gt;" style="text;html=1;align=center;verticalAlign=middle;resizable=0;points=[];autosize=1;" vertex="1" parent="1">
          <mxGeometry x="145" y="1140" width="90" height="20" as="geometry" />
        </mxCell>
        <mxCell id="LbgdtF4BxHfbJpCjpxdi-52" value="&lt;font style=&quot;font-size: 14px&quot;&gt;End game...&lt;/font&gt;" style="text;html=1;align=center;verticalAlign=middle;resizable=0;points=[];autosize=1;" vertex="1" parent="1">
          <mxGeometry x="609.38" y="1140" width="90" height="20" as="geometry" />
        </mxCell>
        <mxCell id="LbgdtF4BxHfbJpCjpxdi-53" value="" style="endArrow=classic;html=1;entryX=0;entryY=0.5;entryDx=0;entryDy=0;" edge="1" parent="1" target="LbgdtF4BxHfbJpCjpxdi-48">
          <mxGeometry width="50" height="50" relative="1" as="geometry">
            <mxPoint x="420" y="1120" as="sourcePoint" />
            <mxPoint x="420" y="940" as="targetPoint" />
          </mxGeometry>
        </mxCell>
        <mxCell id="LbgdtF4BxHfbJpCjpxdi-54" value="&lt;font style=&quot;font-size: 14px&quot;&gt;send&lt;/font&gt;" style="text;html=1;align=center;verticalAlign=middle;resizable=0;points=[];autosize=1;" vertex="1" parent="1">
          <mxGeometry x="540" y="1100" width="50" height="20" as="geometry" />
        </mxCell>
        <mxCell id="LbgdtF4BxHfbJpCjpxdi-56" value="" style="endArrow=classic;html=1;entryX=1;entryY=0.5;entryDx=0;entryDy=0;" edge="1" parent="1" target="LbgdtF4BxHfbJpCjpxdi-49">
          <mxGeometry width="50" height="50" relative="1" as="geometry">
            <mxPoint x="420" y="1120" as="sourcePoint" />
            <mxPoint x="420" y="940" as="targetPoint" />
          </mxGeometry>
        </mxCell>
        <mxCell id="LbgdtF4BxHfbJpCjpxdi-57" value="&lt;font style=&quot;font-size: 14px&quot;&gt;send&lt;/font&gt;" style="text;html=1;align=center;verticalAlign=middle;resizable=0;points=[];autosize=1;" vertex="1" parent="1">
          <mxGeometry x="235" y="1100" width="50" height="20" as="geometry" />
        </mxCell>
      </root>
    </mxGraphModel>
  </diagram>
</mxfile>
